<svg xmlns="http://www.w3.org/2000/svg" width="1000" height="240" viewBox="0 0 1000 240" role="img" aria-label="DevGustavS profile banner"><defs><linearGradient id="bg" x1="0" y1="0" x2="1" y2="1"><stop offset="0" stop-color="#0d1117"/><stop offset="1" stop-color="#10151c"/></linearGradient><radialGradient id="glow" cx="82%" cy="48%" r="48%"><stop offset="0" stop-color="#30363d" stop-opacity=".38"/><stop offset="1" stop-color="#30363d" stop-opacity="0"/></radialGradient></defs><rect width="1000" height="240" rx="10" fill="url(#bg)"/><rect width="1000" height="240" rx="10" fill="url(#glow)"/><rect x=".5" y=".5" width="999" height="239" rx="9.5" fill="none" stroke="#30363d"/><path d="M36 38H964M36 202H964" stroke="#21262d"/><g fill="none" stroke="#30363d"><circle cx="826" cy="120" r="58"/><circle cx="826" cy="120" r="88" stroke-opacity=".55"/><path d="M738 120H914M826 32V208" stroke-opacity=".45"/><path d="M764 58L888 182M888 58L764 182" stroke-opacity=".28"/></g><g fill="#8b949e"><circle cx="826" cy="120" r="4"/><circle cx="783" cy="84" r="3"/><circle cx="872" cy="96" r="3"/><circle cx="854" cy="162" r="3"/></g><g font-family="ui-monospace,SFMono-Regular,Menlo,Monaco,Consolas,monospace"><text x="38" y="27" fill="#6e7681" font-size="10" letter-spacing="1.8">DEVGUSTAVS / PROFILE</text><text x="38" y="91" fill="#f0f6fc" font-size="34" font-weight="700" letter-spacing="-1">DEVGUSTAVS</text><text x="40" y="123" fill="#8b949e" font-size="13" letter-spacing=".8">AI-NATIVE DEVELOPMENT · AUTOMATION · SOFTWARE SYSTEMS</text><text x="40" y="158" fill="#c9d1d9" font-size="12">Building ASTRA Digital Factory.</text><text x="40" y="184" fill="#6e7681" font-size="11">Python · AI Engineering · Web Systems · Cybersecurity</text><text x="940" y="53" text-anchor="end" fill="#6e7681" font-size="9" letter-spacing="1.5">ASTRA / ACTIVE</text><text x="940" y="194" text-anchor="end" fill="#6e7681" font-size="9" letter-spacing="1.5">BRAZIL</text></g></svg>